REM DIRINDEX 1\5,1\2\6,1\2\7,1\3\8,1\3\9,1\4\10,1\4\11,1\4\12
REM DIRNAME folder01,folder02,folder03,folder04,folder05,folder06,folder07,folder08,folder09,folder10,folder11,folder12
TITLE ""
FILE "EJE_DB3000_5th_5C_21.mp3" MP3
  TRACK 01 AUDIO
    TITLE "0:"
    INDEX 01 00:00:00
  TRACK 02 AUDIO
    TITLE "10:cjc026_10941"
    INDEX 01 00:00:05
  TRACK 03 AUDIO
    TITLE "0:"
    INDEX 01 00:01:05
  TRACK 04 AUDIO
    TITLE "11:cjc026_10942"
    INDEX 01 00:01:30
  TRACK 05 AUDIO
    TITLE "0:"
    INDEX 01 00:02:40
  TRACK 06 AUDIO
    TITLE "12:cjc026_10943"
    INDEX 01 00:02:67
  TRACK 07 AUDIO
    TITLE "0:"
    INDEX 01 00:03:64
  TRACK 08 AUDIO
    TITLE "10:cjc026_10944"
    INDEX 01 00:04:17
  TRACK 09 AUDIO
    TITLE "0:"
    INDEX 01 00:05:18
  TRACK 10 AUDIO
    TITLE "11:cjc026_10945"
    INDEX 01 00:05:44
  TRACK 11 AUDIO
    TITLE "0:"
    INDEX 01 00:06:55
  TRACK 12 AUDIO
    TITLE "12:cjc026_10946"
    INDEX 01 00:07:05
  TRACK 13 AUDIO
    TITLE "0:"
    INDEX 01 00:08:07
  TRACK 14 AUDIO
    TITLE "10:cjc026_10947"
    INDEX 01 00:08:32
  TRACK 15 AUDIO
    TITLE "0:"
    INDEX 01 00:09:38
  TRACK 16 AUDIO
    TITLE "11:cjc026_10948"
    INDEX 01 00:09:63
  TRACK 17 AUDIO
    TITLE "0:"
    INDEX 01 00:11:01
  TRACK 18 AUDIO
    TITLE "12:cjc026_10949"
    INDEX 01 00:11:27
  TRACK 19 AUDIO
    TITLE "0:"
    INDEX 01 00:12:32
  TRACK 20 AUDIO
    TITLE "10:cjc026_10950"
    INDEX 01 00:12:58
  TRACK 21 AUDIO
    TITLE "0:"
    INDEX 01 00:13:57
  TRACK 22 AUDIO
    TITLE "11:cjc026_10951"
    INDEX 01 00:14:07
  TRACK 23 AUDIO
    TITLE "0:"
    INDEX 01 00:15:19
  TRACK 24 AUDIO
    TITLE "12:cjc026_10952"
    INDEX 01 00:15:44
  TRACK 25 AUDIO
    TITLE "0:"
    INDEX 01 00:16:44
  TRACK 26 AUDIO
    TITLE "10:cjc026_10953"
    INDEX 01 00:16:67
  TRACK 27 AUDIO
    TITLE "0:"
    INDEX 01 00:17:70
  TRACK 28 AUDIO
    TITLE "11:cjc026_10954"
    INDEX 01 00:18:23
  TRACK 29 AUDIO
    TITLE "0:"
    INDEX 01 00:19:28
  TRACK 30 AUDIO
    TITLE "12:cjc026_10955"
    INDEX 01 00:19:54
  TRACK 31 AUDIO
    TITLE "0:"
    INDEX 01 00:20:57
  TRACK 32 AUDIO
    TITLE "10:cjc026_10956"
    INDEX 01 00:21:08
  TRACK 33 AUDIO
    TITLE "0:"
    INDEX 01 00:22:07
  TRACK 34 AUDIO
    TITLE "11:cjc026_10957"
    INDEX 01 00:22:34
  TRACK 35 AUDIO
    TITLE "0:"
    INDEX 01 00:23:46
  TRACK 36 AUDIO
    TITLE "12:cjc026_10958"
    INDEX 01 00:23:71
  TRACK 37 AUDIO
    TITLE "0:"
    INDEX 01 00:24:71
  TRACK 38 AUDIO
    TITLE "10:cjc026_10959"
    INDEX 01 00:25:21
  TRACK 39 AUDIO
    TITLE "0:"
    INDEX 01 00:26:17
  TRACK 40 AUDIO
    TITLE "11:cjc026_10960"
    INDEX 01 00:26:44
  TRACK 41 AUDIO
    TITLE "0:"
    INDEX 01 00:27:55
  TRACK 42 AUDIO
    TITLE "12:cjc026_10961"
    INDEX 01 00:28:06
  TRACK 43 AUDIO
    TITLE "0:"
    INDEX 01 00:29:01
  TRACK 44 AUDIO
    TITLE "10:cjc026_10962"
    INDEX 01 00:29:29
  TRACK 45 AUDIO
    TITLE "0:"
    INDEX 01 00:30:24
  TRACK 46 AUDIO
    TITLE "11:cjc026_10963"
    INDEX 01 00:30:50
  TRACK 47 AUDIO
    TITLE "0:"
    INDEX 01 00:31:65
  TRACK 48 AUDIO
    TITLE "12:cjc026_10964"
    INDEX 01 00:32:17
  TRACK 49 AUDIO
    TITLE "0:"
    INDEX 01 00:33:13
  TRACK 50 AUDIO
    TITLE "10:cjc026_10965"
    INDEX 01 00:33:38
  TRACK 51 AUDIO
    TITLE "0:"
    INDEX 01 00:34:38
  TRACK 52 AUDIO
    TITLE "11:cjc026_10966"
    INDEX 01 00:34:63
  TRACK 53 AUDIO
    TITLE "0:"
    INDEX 01 00:35:61
  TRACK 54 AUDIO
    TITLE "12:cjc026_10967"
    INDEX 01 00:36:09
  TRACK 55 AUDIO
    TITLE "0:"
    INDEX 01 00:37:08
  TRACK 56 AUDIO
    TITLE "10:cjc026_10968"
    INDEX 01 00:37:34
  TRACK 57 AUDIO
    TITLE "0:"
    INDEX 01 00:38:49
  TRACK 58 AUDIO
    TITLE "11:cjc026_10969"
    INDEX 01 00:39:02
  TRACK 59 AUDIO
    TITLE "0:"
    INDEX 01 00:39:72
  TRACK 60 AUDIO
    TITLE "12:cjc026_10970"
    INDEX 01 00:40:23
  TRACK 61 AUDIO
    TITLE "0:"
    INDEX 01 00:41:38
  TRACK 62 AUDIO
    TITLE "10:cjc026_10971"
    INDEX 01 00:41:65
  TRACK 63 AUDIO
    TITLE "0:"
    INDEX 01 00:42:55
  TRACK 64 AUDIO
    TITLE "11:cjc026_10972"
    INDEX 01 00:43:07
  TRACK 65 AUDIO
    TITLE "0:"
    INDEX 01 00:44:07
  TRACK 66 AUDIO
    TITLE "12:cjc026_10973"
    INDEX 01 00:44:32
  TRACK 67 AUDIO
    TITLE "0:"
    INDEX 01 00:45:24
  TRACK 68 AUDIO
    TITLE "10:cjc026_10974"
    INDEX 01 00:45:47
  TRACK 69 AUDIO
    TITLE "0:"
    INDEX 01 00:46:56
  TRACK 70 AUDIO
    TITLE "11:cjc026_10975"
    INDEX 01 00:47:07
  TRACK 71 AUDIO
    TITLE "0:"
    INDEX 01 00:48:10
  TRACK 72 AUDIO
    TITLE "12:cjc026_10976"
    INDEX 01 00:48:36
  TRACK 73 AUDIO
    TITLE "0:"
    INDEX 01 00:49:43
  TRACK 74 AUDIO
    TITLE "10:cjc026_10977"
    INDEX 01 00:49:70
  TRACK 75 AUDIO
    TITLE "0:"
    INDEX 01 00:50:60
  TRACK 76 AUDIO
    TITLE "11:cjc026_10978"
    INDEX 01 00:51:13
  TRACK 77 AUDIO
    TITLE "0:"
    INDEX 01 00:51:71
  TRACK 78 AUDIO
    TITLE "12:cjc026_10979"
    INDEX 01 00:52:22
  TRACK 79 AUDIO
    TITLE "0:"
    INDEX 01 00:53:11
  TRACK 80 AUDIO
    TITLE "10:cjc026_10980"
    INDEX 01 00:53:39
  TRACK 81 AUDIO
    TITLE "0:"
    INDEX 01 00:54:50
  TRACK 82 AUDIO
    TITLE "11:cjc026_10981"
    INDEX 01 00:54:74
  TRACK 83 AUDIO
    TITLE "0:"
    INDEX 01 00:56:04
  TRACK 84 AUDIO
    TITLE "12:cjc026_10982"
    INDEX 01 00:56:29
  TRACK 85 AUDIO
    TITLE "0:"
    INDEX 01 00:57:39
